<?xml version="1.0" standalone="no"?>
<!DOCTYPE svg PUBLIC "-//W3C//DTD SVG 20010904//EN"
 "http://www.w3.org/TR/2001/REC-SVG-20010904/DTD/svg10.dtd">
<svg version="1.0" xmlns="http://www.w3.org/2000/svg"
 width="16.000000pt" height="16.000000pt" viewBox="0 0 16.000000 16.000000"
 preserveAspectRatio="xMidYMid meet">

<g transform="translate(0.000000,16.000000) scale(0.100000,-0.100000)"
fill="#000000" stroke="none">
<path d="M0 128 c0 -29 1 -30 18 -15 27 24 32 21 32 -17 0 -35 -21 -63 -40
-51 -6 4 -10 -4 -10 -19 0 -26 1 -26 80 -26 l80 0 0 80 0 80 -80 0 -80 0 0
-32z m104 -23 c-4 -9 0 -15 7 -15 9 0 7 -5 -4 -11 -14 -8 -22 -8 -30 1 -9 10
-9 14 1 17 6 3 10 9 6 14 -3 5 2 9 10 9 10 0 13 -6 10 -15z m-28 -60 c-7 -18
5 -19 24 -2 8 6 6 2 -5 -11 -16 -20 -20 -21 -27 -7 -5 8 -6 20 -3 25 10 15 18
12 11 -5z"/>
</g>
</svg>
